<?xml version="1.0" standalone="no"?>
<!DOCTYPE svg PUBLIC "-//W3C//DTD SVG 20010904//EN"
 "http://www.w3.org/TR/2001/REC-SVG-20010904/DTD/svg10.dtd">
<svg version="1.0" xmlns="http://www.w3.org/2000/svg"
 width="512.000000pt" height="229.000000pt" viewBox="0 0 512.000000 229.000000"
 preserveAspectRatio="xMidYMid meet">

<g transform="translate(0.000000,229.000000) scale(0.100000,-0.100000)"
fill="#000000" stroke="none">
<path d="M989 2000 c-95 -16 -182 -79 -223 -162 -20 -41 -26 -67 -26 -120 l0
-68 -93 0 c-60 0 -99 -5 -111 -13 -15 -11 -27 -100 -81 -601 -58 -530 -63
-591 -51 -621 28 -67 12 -66 650 -63 l574 3 26 24 c14 13 28 38 31 55 3 17
-23 292 -58 610 -56 509 -66 580 -82 592 -13 9 -48 14 -106 14 l-86 0 -7 67
c-12 115 -61 195 -151 248 -35 21 -56 27 -140 39 -11 2 -41 0 -66 -4z m132
-81 c50 -15 105 -62 129 -108 10 -21 22 -65 26 -99 l7 -62 -237 0 -236 0 0 57
c0 157 150 260 311 212z m-383 -384 c4 -31 18 -55 33 -55 17 0 39 33 39 61 l0
29 235 0 235 0 0 -45 c0 -33 5 -47 16 -52 28 -11 49 11 52 56 l3 42 72 -3 72
-3 56 -505 c30 -278 58 -529 62 -557 10 -89 51 -83 -568 -83 -299 0 -550 3
-559 6 -10 4 -16 18 -16 38 -1 33 108 1046 116 1084 4 22 8 23 77 20 72 -3 72
-3 75 -33z"/>
<path d="M1030 1265 c0 -16 -7 -28 -17 -31 -124 -37 -195 -137 -196 -275 -1
-63 4 -86 26 -132 33 -66 91 -121 146 -138 33 -10 41 -17 41 -36 0 -12 5 -23
10 -23 6 0 10 11 10 24 0 19 6 24 38 30 49 7 115 55 147 106 27 43 30 56 16
64 -17 11 -39 -5 -52 -36 -16 -39 -83 -88 -121 -88 l-28 0 0 231 0 232 32 -7
c42 -8 93 -48 124 -97 26 -41 54 -52 54 -21 0 38 -94 144 -137 155 -10 3 -30
8 -45 11 -21 5 -28 12 -28 31 0 14 -4 25 -10 25 -5 0 -10 -11 -10 -25z m-2
-308 c2 -216 1 -227 -16 -227 -32 0 -85 43 -117 94 -24 40 -30 62 -33 120 -4
79 10 123 55 176 30 36 82 72 98 67 6 -2 11 -90 13 -230z"/>
<path d="M2297 1304 c-4 -4 -7 -113 -7 -241 l0 -234 28 3 27 3 5 118 5 119 33
29 c53 48 123 36 137 -24 3 -12 6 -71 8 -132 l2 -110 25 0 c25 0 25 0 28 108
3 121 -9 178 -43 213 -33 33 -94 32 -151 -1 l-43 -25 -3 87 c-3 80 -5 88 -23
91 -12 2 -24 0 -28 -4z"/>
<path d="M3574 1297 c-2 -7 -3 -114 -2 -237 3 -225 3 -225 26 -228 17 -3 22 2
22 17 0 25 4 26 34 6 87 -57 194 -26 237 69 25 55 24 112 -3 166 -45 89 -146
118 -219 65 l-34 -26 -3 91 c-3 89 -3 90 -28 90 -13 0 -27 -6 -30 -13z m238
-196 c27 -24 32 -36 36 -88 4 -56 2 -62 -28 -96 -49 -56 -118 -59 -170 -7 -16
16 -20 33 -20 89 0 66 1 70 35 100 48 42 101 43 147 2z"/>
<path d="M1970 1158 c-54 -37 -62 -113 -16 -143 11 -7 50 -21 86 -30 96 -25
121 -54 80 -95 -26 -26 -98 -27 -149 -1 -29 15 -41 17 -50 8 -18 -18 -13 -25
27 -45 113 -57 242 -18 242 73 0 50 -34 79 -120 100 -38 9 -76 25 -86 36 -15
17 -15 20 0 44 21 32 60 41 110 26 60 -18 81 -18 81 -1 0 23 -64 50 -121 50
-36 0 -61 -6 -84 -22z"/>
<path d="M2776 1156 c-55 -33 -86 -88 -86 -154 0 -86 48 -150 128 -172 108
-28 212 55 212 172 0 135 -142 222 -254 154z m153 -51 c60 -51 65 -140 11
-193 -36 -37 -72 -46 -116 -32 -126 42 -96 250 36 250 27 0 48 -8 69 -25z"/>
<path d="M3140 934 l0 -245 23 3 c21 3 22 8 25 97 l3 94 23 -22 c52 -49 154
-45 203 7 76 81 66 223 -19 284 -45 31 -118 36 -163 9 -44 -26 -41 -25 -48 -1
-3 12 -14 20 -26 20 -21 0 -21 -3 -21 -246z m229 170 c73 -61 52 -195 -34
-224 -44 -15 -96 1 -125 37 -22 29 -28 129 -10 163 28 53 120 66 169 24z"/>
<path d="M4053 1161 c-44 -21 -49 -27 -34 -49 7 -11 16 -10 47 7 75 40 147 15
160 -57 l7 -33 -62 7 c-71 8 -141 -13 -166 -49 -22 -31 -19 -89 6 -120 37 -49
130 -55 194 -13 23 15 25 15 35 -4 14 -26 60 -27 60 -2 0 10 -4 22 -9 27 -5 6
-11 61 -13 122 -3 112 -3 113 -35 145 -27 27 -41 32 -90 35 -43 3 -69 -2 -100
-16z m158 -171 c26 -14 24 -53 -4 -86 -33 -37 -115 -46 -146 -15 -50 50 -6
111 81 111 27 0 58 -5 69 -10z"/>
<path d="M4472 1163 c-37 -18 -77 -80 -87 -135 -12 -66 29 -154 87 -184 42
-22 111 -20 153 5 34 20 49 16 41 -11 -2 -7 -7 -26 -10 -41 -17 -74 -145 -89
-214 -24 -16 15 -25 18 -33 10 -18 -18 -1 -48 42 -72 34 -19 52 -23 109 -19
79 4 114 24 143 79 15 29 17 59 15 219 -3 177 -4 185 -23 185 -13 0 -21 -8
-23 -22 -4 -28 -3 -28 -48 2 -43 29 -102 33 -152 8z m138 -48 c89 -46 77 -207
-18 -235 -76 -23 -152 38 -152 123 0 100 85 156 170 112z"/>
</g>
</svg>
