<?xml version="1.0" standalone="no"?>
<!DOCTYPE svg PUBLIC "-//W3C//DTD SVG 20010904//EN"
 "http://www.w3.org/TR/2001/REC-SVG-20010904/DTD/svg10.dtd">
<svg version="1.0" xmlns="http://www.w3.org/2000/svg"
 width="255.000000pt" height="300.000000pt" viewBox="0 0 255.000000 300.000000"
 preserveAspectRatio="xMidYMid meet">

<g transform="translate(0.000000,300.000000) scale(0.100000,-0.100000)"
fill="#000000" stroke="none">
<path d="M1235 2931 c-81 -23 -119 -45 -176 -98 -86 -80 -129 -184 -129 -310
l0 -63 -129 0 c-145 0 -155 -4 -165 -67 -23 -147 -167 -1529 -164 -1571 3 -37
11 -59 29 -78 52 -56 15 -54 846 -54 711 0 771 1 803 18 45 22 80 75 80 121 0
20 -38 385 -85 811 -47 426 -85 778 -85 782 0 3 -7 14 -16 22 -12 13 -40 16
-143 16 l-127 0 -11 103 c-16 154 -63 235 -184 316 -63 42 -164 72 -241 70
-24 0 -70 -8 -103 -18z m258 -115 c107 -52 163 -142 174 -276 l6 -80 -322 0
-321 0 0 68 c0 95 22 153 84 218 72 77 144 106 247 101 58 -3 90 -10 132 -31z
m-563 -497 c0 -56 14 -79 50 -79 36 0 50 23 50 79 l0 41 320 0 320 0 0 -58 c0
-45 4 -63 19 -76 42 -38 81 3 81 87 l0 47 100 0 c55 0 100 -3 100 -7 0 -5 36
-351 82 -770 68 -633 79 -764 69 -777 -12 -14 -94 -16 -770 -16 -575 0 -760 3
-769 12 -7 7 -12 27 -12 46 0 31 143 1373 156 1470 l6 42 99 0 99 0 0 -41z"/>
<path d="M1340 1840 c0 -17 -6 -32 -12 -34 -73 -21 -115 -44 -154 -85 -67 -69
-96 -137 -102 -233 -6 -104 10 -173 57 -246 44 -67 84 -99 156 -124 44 -14 50
-20 53 -47 4 -40 22 -40 22 -1 0 24 5 31 28 36 99 21 172 71 219 151 27 47 25
73 -6 73 -12 0 -28 -16 -44 -42 -44 -74 -118 -128 -177 -128 -20 0 -20 5 -20
295 l0 295 22 0 c58 0 148 -70 190 -148 9 -18 24 -32 33 -32 50 0 11 95 -68
166 -45 40 -73 53 -149 69 -23 4 -28 11 -28 35 0 17 -4 30 -10 30 -5 0 -10
-14 -10 -30z m0 -385 c0 -156 -4 -286 -8 -289 -4 -2 -26 4 -48 14 -174 77
-215 338 -77 491 37 41 109 83 125 73 4 -3 8 -133 8 -289z"/>
<path d="M407 483 c-4 -3 -7 -80 -7 -170 l0 -163 30 0 30 0 0 78 c0 69 3 81
23 100 13 12 30 22 38 22 31 0 39 -23 39 -112 l0 -88 31 0 31 0 -4 101 c-4 97
-5 103 -33 126 -28 25 -63 28 -107 8 -16 -6 -18 -1 -18 49 0 52 -2 56 -23 56
-13 0 -27 -3 -30 -7z"/>
<path d="M1530 319 l0 -171 38 4 c20 3 48 1 61 -4 34 -12 85 7 116 43 19 23
25 42 25 75 0 102 -75 157 -162 119 -16 -6 -18 -1 -18 49 0 56 0 56 -30 56
l-30 0 0 -171z m165 6 c14 -13 25 -33 25 -44 0 -59 -54 -101 -101 -77 -20 9
-25 20 -27 63 -3 44 0 53 20 67 32 22 55 20 83 -9z"/>
<path d="M96 379 c-19 -15 -26 -30 -26 -53 0 -41 21 -60 85 -78 55 -15 66 -37
24 -52 -19 -6 -36 -4 -64 9 -37 18 -38 18 -51 0 -13 -17 -11 -21 17 -39 68
-43 171 -13 177 51 4 40 -16 59 -84 79 -41 12 -54 20 -52 32 4 21 58 28 89 12
17 -10 24 -9 37 3 13 14 11 18 -19 36 -44 27 -99 27 -133 0z"/>
<path d="M835 390 c-69 -28 -96 -127 -53 -190 15 -22 38 -40 64 -49 37 -13 44
-12 79 5 51 25 78 63 78 111 0 96 -85 158 -168 123z m90 -65 c30 -29 32 -70 6
-104 -46 -60 -138 3 -110 77 20 55 65 67 104 27z"/>
<path d="M1150 230 l0 -170 25 0 c24 0 25 3 25 54 l0 55 36 -15 c118 -50 207
124 110 215 -29 27 -86 37 -117 21 -17 -10 -24 -10 -27 -1 -2 6 -15 11 -28 11
l-24 0 0 -170z m157 98 c30 -28 32 -87 3 -113 -46 -41 -110 -6 -110 61 0 65
61 95 107 52z"/>
<path d="M1950 385 c-44 -20 -44 -20 -30 -44 10 -20 13 -20 33 -6 31 22 84 19
97 -4 15 -30 14 -31 -45 -31 -46 0 -60 -4 -80 -25 -30 -29 -32 -64 -5 -98 26
-33 60 -40 110 -23 22 7 43 10 46 5 3 -5 16 -9 30 -9 19 0 24 5 24 25 0 14 -4
25 -10 25 -6 0 -10 31 -10 73 0 65 -3 76 -24 96 -31 29 -91 36 -136 16z m110
-145 c0 -45 -88 -65 -104 -23 -10 24 19 43 66 43 31 0 38 -4 38 -20z"/>
<path d="M2318 384 c-52 -28 -75 -116 -45 -173 28 -55 114 -83 153 -50 14 11
15 10 12 -11 -7 -52 -85 -64 -126 -20 -18 20 -19 20 -36 2 -15 -18 -15 -20 9
-44 60 -60 178 -40 204 34 6 17 11 87 11 154 l0 124 -24 0 c-14 0 -28 -5 -31
-10 -4 -7 -12 -7 -25 0 -26 14 -70 12 -102 -6z m100 -50 c20 -14 23 -23 20
-67 -2 -43 -7 -54 -27 -63 -47 -24 -101 18 -101 77 0 25 43 69 67 69 10 0 29
-7 41 -16z"/>
</g>
</svg>
