<?xml version="1.0" standalone="no"?>
<!DOCTYPE svg PUBLIC "-//W3C//DTD SVG 20010904//EN"
 "http://www.w3.org/TR/2001/REC-SVG-20010904/DTD/svg10.dtd">
<svg version="1.0" xmlns="http://www.w3.org/2000/svg"
 width="300.000000pt" height="104.000000pt" viewBox="0 0 300.000000 104.000000"
 preserveAspectRatio="xMidYMid meet">

<g transform="translate(0.000000,104.000000) scale(0.100000,-0.100000)"
fill="#000000" stroke="none">
<path d="M370 939 c-58 -24 -100 -85 -100 -144 l0 -35 -54 0 -55 0 -6 -42 c-3
-24 -19 -162 -35 -308 -33 -295 -32 -303 32 -315 18 -3 153 -5 300 -3 258 3
268 4 289 24 l21 22 -31 288 c-18 159 -34 299 -37 312 -4 20 -10 22 -59 22
l-55 0 0 39 c0 42 -29 92 -71 124 -31 23 -103 31 -139 16z m103 -40 c49 -25
67 -51 67 -96 l0 -43 -119 0 -120 0 6 38 c8 51 19 70 56 92 36 22 78 25 110 9z
m3 -178 c57 -1 62 -3 68 -26 4 -14 13 -25 21 -25 9 0 15 10 15 25 0 22 4 25
39 25 38 0 39 -2 45 -37 16 -110 57 -526 52 -539 -4 -12 -51 -14 -290 -14
-171 0 -287 4 -291 10 -3 5 8 133 25 284 16 150 30 279 30 285 0 6 17 11 40
11 33 0 40 -3 40 -20 0 -27 28 -25 35 3 5 20 12 22 58 20 29 -1 80 -2 113 -2z"/>
<path d="M424 485 c3 -9 0 -15 -10 -15 -27 0 -64 -50 -64 -88 0 -27 8 -42 35
-68 19 -18 35 -40 35 -48 0 -9 5 -16 10 -16 6 0 10 8 10 17 0 10 12 27 28 39
32 26 24 43 -10 20 l-23 -15 3 69 c2 39 6 70 10 70 3 0 13 -7 23 -16 11 -10
19 -12 24 -5 3 6 -7 19 -24 29 -17 9 -31 23 -31 30 0 6 -5 12 -11 12 -6 0 -9
-7 -5 -15z m-9 -164 c-10 -9 -45 39 -45 62 0 11 10 32 23 45 l22 24 3 -62 c2
-34 0 -65 -3 -69z"/>
<path d="M1210 535 c0 -188 1 -195 20 -195 19 0 20 7 20 95 0 88 2 98 25 120
30 31 69 32 89 3 12 -17 16 -48 16 -120 0 -91 1 -98 20 -98 19 0 20 7 20 113
0 85 -4 118 -15 134 -21 30 -76 39 -116 19 -18 -9 -34 -16 -36 -16 -1 0 -3 32
-3 70 0 63 -2 70 -20 70 -19 0 -20 -7 -20 -195z"/>
<path d="M2090 535 l0 -195 25 0 c14 0 25 5 25 10 0 6 13 4 30 -5 107 -55 197
72 144 205 -26 64 -84 86 -144 55 l-30 -16 0 71 c0 68 -1 70 -25 70 l-25 0 0
-195z m165 20 c21 -20 25 -34 25 -80 0 -46 -4 -60 -25 -80 -29 -30 -64 -32
-93 -5 -18 17 -22 32 -22 85 0 53 4 68 22 85 29 27 64 25 93 -5z"/>
<path d="M984 606 c-39 -17 -58 -62 -40 -97 8 -16 32 -31 76 -47 80 -29 95
-46 64 -76 -24 -24 -71 -20 -100 9 -29 29 -54 32 -54 7 0 -24 38 -59 73 -67
38 -10 94 2 118 26 23 23 25 81 4 99 -9 7 -44 23 -78 34 -66 23 -84 49 -51 73
28 20 63 15 88 -12 24 -25 56 -34 56 -14 0 24 -24 52 -55 65 -42 17 -61 17
-101 0z"/>
<path d="M1565 610 c-47 -19 -69 -58 -73 -129 -4 -65 -3 -70 28 -104 105 -120
269 15 201 167 -28 63 -95 92 -156 66z m86 -43 c25 -19 39 -52 39 -92 0 -121
-130 -144 -155 -28 -18 85 59 164 116 120z"/>
<path d="M1870 603 c-17 -12 -25 -13 -28 -5 -2 7 -12 12 -23 12 -18 0 -19 -9
-19 -190 0 -183 1 -190 20 -190 18 0 20 7 20 65 l0 65 35 -17 c49 -24 102 -9
132 36 31 45 32 141 3 189 -31 51 -94 67 -140 35z m77 -38 c67 -47 37 -195
-39 -195 -48 0 -68 31 -68 104 0 58 3 67 26 85 32 25 52 26 81 6z"/>
<path d="M2438 604 c-24 -13 -48 -42 -48 -58 0 -14 42 -4 60 14 37 37 95 19
102 -30 3 -24 0 -25 -60 -30 -55 -4 -67 -9 -89 -34 -63 -73 35 -171 121 -122
20 11 32 14 34 7 2 -6 13 -11 25 -11 21 0 22 3 19 107 -2 60 -8 116 -14 126
-11 22 -67 47 -100 47 -13 -1 -35 -7 -50 -16z m122 -158 c0 -54 -78 -96 -113
-61 -40 40 -3 85 70 85 39 0 43 -2 43 -24z"/>
<path d="M2733 610 c-63 -25 -86 -162 -40 -231 30 -45 86 -61 128 -37 l29 17
0 -28 c0 -55 -71 -83 -124 -48 -20 14 -26 14 -35 3 -19 -23 32 -56 85 -56 106
0 124 34 124 234 0 137 -1 146 -19 146 -11 0 -21 -5 -23 -11 -2 -6 -14 -5 -33
5 -33 18 -59 19 -92 6z m95 -46 c19 -13 22 -24 22 -89 0 -65 -3 -76 -22 -89
-32 -23 -61 -20 -89 10 -20 21 -24 36 -23 81 0 48 4 59 28 79 32 28 53 30 84
8z"/>
</g>
</svg>
