<?xml version="1.0" standalone="no"?>
<!DOCTYPE svg PUBLIC "-//W3C//DTD SVG 20010904//EN"
 "http://www.w3.org/TR/2001/REC-SVG-20010904/DTD/svg10.dtd">
<svg version="1.0" xmlns="http://www.w3.org/2000/svg"
 width="299.000000pt" height="300.000000pt" viewBox="0 0 299.000000 300.000000"
 preserveAspectRatio="xMidYMid meet">

<g transform="translate(0.000000,300.000000) scale(0.100000,-0.100000)"
fill="#000000" stroke="none">
<path d="M1458 2852 l-33 -17 -3 -627 -2 -628 -614 0 c-338 0 -622 -3 -631 -6
-45 -18 -48 -111 -5 -134 12 -6 252 -10 634 -10 l616 0 0 -620 c0 -618 0 -620
21 -641 17 -17 29 -20 62 -16 23 3 47 14 54 23 10 14 13 148 13 636 l0 618
618 0 c488 0 622 3 636 13 9 7 20 31 23 54 4 33 1 45 -16 62 -21 21 -23 21
-641 21 l-620 0 0 616 c0 382 -4 622 -10 634 -16 31 -63 41 -102 22z"/>
</g>
</svg>
