<?xml version="1.0" standalone="no"?>
<!DOCTYPE svg PUBLIC "-//W3C//DTD SVG 20010904//EN"
 "http://www.w3.org/TR/2001/REC-SVG-20010904/DTD/svg10.dtd">
<svg version="1.0" xmlns="http://www.w3.org/2000/svg"
 width="234.000000pt" height="300.000000pt" viewBox="0 0 234.000000 300.000000"
 preserveAspectRatio="xMidYMid meet">

<g transform="translate(0.000000,300.000000) scale(0.100000,-0.100000)"
fill="#000000" stroke="none">
<path d="M740 2887 c-43 -22 -50 -50 -50 -219 l0 -158 -264 0 c-251 0 -265 -1
-290 -21 -33 -26 -35 -70 -4 -99 22 -20 29 -20 1033 -20 l1012 0 21 23 c27 29
28 71 2 97 -19 19 -33 20 -289 20 l-270 0 -3 170 c-3 161 -4 171 -26 192 l-23
23 -412 3 c-318 1 -418 -1 -437 -11z m750 -257 l0 -120 -325 0 -325 0 0 120 0
120 325 0 325 0 0 -120z"/>
<path d="M320 1236 c0 -699 3 -1054 10 -1072 22 -56 -17 -53 831 -54 781 0
786 0 813 21 l26 20 0 1065 0 1064 -70 0 -70 0 0 -1015 0 -1015 -700 0 -700 0
0 1015 0 1015 -70 0 -70 0 0 -1044z"/>
</g>
</svg>
