<?xml version="1.0" standalone="no"?>
<!DOCTYPE svg PUBLIC "-//W3C//DTD SVG 20010904//EN"
 "http://www.w3.org/TR/2001/REC-SVG-20010904/DTD/svg10.dtd">
<svg version="1.0" xmlns="http://www.w3.org/2000/svg"
 width="294.000000pt" height="300.000000pt" viewBox="0 0 294.000000 300.000000"
 preserveAspectRatio="xMidYMid meet">

<g transform="translate(0.000000,300.000000) scale(0.100000,-0.100000)"
fill="#000000" stroke="none">
<path d="M1081 2859 c-69 -13 -181 -71 -237 -122 -109 -99 -150 -199 -160
-392 l-7 -125 -158 0 c-87 0 -169 -4 -182 -9 -13 -5 -29 -22 -35 -38 -9 -24
-162 -1817 -166 -1946 -1 -40 3 -52 23 -68 23 -18 53 -19 1011 -19 984 0 987
0 1014 21 21 17 26 29 26 65 l0 44 -971 0 -971 0 6 58 c5 44 146 1745 146
1759 0 1 58 3 130 3 l130 0 1 -57 c0 -32 1 -79 2 -106 2 -36 -2 -48 -15 -53
-106 -33 -146 -216 -65 -302 82 -88 231 -81 304 14 38 50 44 142 14 201 -20
41 -58 78 -89 87 -13 5 -17 17 -15 53 1 27 2 74 2 106 l1 57 355 0 355 0 0
-65 0 -65 65 0 65 0 0 65 0 65 129 0 c145 0 141 3 141 -87 l0 -43 66 0 67 0
-7 102 c-4 56 -12 110 -17 120 -17 32 -54 38 -220 38 l-159 0 0 98 c-1 189
-45 308 -156 412 -120 112 -273 159 -423 129z m154 -130 c82 -15 144 -49 198
-109 67 -74 89 -140 95 -282 l4 -118 -357 0 -357 0 4 128 c3 121 5 131 36 195
50 100 141 168 252 187 65 11 61 11 125 -1z m-441 -985 c18 -18 21 -56 6 -85
-8 -14 -21 -19 -50 -19 -43 0 -60 18 -60 64 0 33 25 56 60 56 16 0 36 -7 44
-16z"/>
<path d="M1386 1871 c-14 -16 -28 -136 -84 -755 l-67 -736 23 -22 23 -23 733
0 c845 0 776 -8 776 94 -1 31 -29 363 -63 738 -55 598 -65 684 -81 702 -19 21
-26 21 -631 21 -588 0 -613 -1 -629 -19z m1159 -163 c3 -29 28 -305 55 -613
27 -308 52 -575 54 -592 l5 -33 -644 0 -644 0 5 33 c2 17 27 284 54 592 27
308 52 584 55 613 l6 52 524 0 524 0 6 -52z"/>
<path d="M1649 1681 c-18 -14 -23 -31 -27 -77 -10 -149 35 -287 121 -372 154
-151 386 -153 540 -4 90 88 121 171 122 330 0 97 -1 105 -24 123 -29 24 -52
24 -82 0 -22 -18 -24 -28 -29 -143 -6 -138 -16 -165 -90 -231 -85 -78 -245
-78 -330 0 -74 66 -84 93 -90 231 -5 115 -7 125 -29 143 -29 24 -53 24 -82 0z"/>
</g>
</svg>
