<svg xmlns="http://www.w3.org/2000/svg" width="300" height="300" viewBox="0 0 300 300" version="1.1">
	<path d="M 146 30.764 C 140.947 31.144, 134.091 33.020, 129.608 35.250 C 124.371 37.855, 116.648 45.218, 113.475 50.633 C 110.498 55.712, 108.043 66.114, 108.017 73.750 L 108 79 94.621 79 L 81.243 79 80.192 81.750 C 79.086 84.645, 62.744 231.845, 62.825 238.176 C 62.889 243.131, 65.246 247.371, 69.344 249.903 C 72.711 251.985, 73.302 252, 149.556 252 L 226.376 252 229.684 249.750 C 233.575 247.103, 236.002 242.527, 235.995 237.849 C 235.984 229.463, 219.063 81.781, 217.961 80.453 C 217.016 79.315, 213.858 79, 203.378 79 L 190 79 190 70.538 C 190 59.957, 187.782 53.619, 181.225 45.458 C 173.436 35.765, 159.086 29.778, 146 30.764 M 141.734 41.031 C 132.437 43.362, 124.253 49.913, 120.752 57.829 C 119.523 60.606, 118.558 65.535, 118.238 70.668 L 117.718 79 149.507 79 L 181.296 79 180.680 71.010 C 180.325 66.401, 179.180 60.964, 177.974 58.161 C 175.403 52.185, 169 45.757, 162.970 43.098 C 157.608 40.734, 147.028 39.705, 141.734 41.031 M 88.547 89.250 C 88.332 89.938, 84.727 122.675, 80.535 162 C 76.344 201.325, 72.679 234.708, 72.392 236.185 C 72.026 238.064, 72.489 239.489, 73.935 240.935 C 75.984 242.984, 76.565 243, 148.250 242.986 C 187.988 242.979, 221.517 242.700, 222.761 242.367 C 224.081 242.013, 225.289 240.696, 225.664 239.202 C 226.165 237.206, 212.742 108.429, 210.295 91.750 L 209.744 88 199.918 88 L 190.091 88 189.796 94.646 C 189.450 102.418, 187.843 104.324, 183.565 102.035 C 181.226 100.783, 181 100.104, 181 94.331 L 181 88 149.500 88 L 118 88 118 92.800 C 118 98.075, 116.763 100, 113.371 100 C 109.870 100, 108 97.364, 108 92.429 L 108 88 98.469 88 C 91.718 88, 88.823 88.365, 88.547 89.250 M 150 138 C 150 142.360, 149.740 143, 147.968 143 C 141.197 143, 131.110 151.416, 128.037 159.631 C 125.450 166.546, 125.455 172.469, 128.056 179.420 C 130.744 186.605, 137.962 193.293, 144.966 195.088 L 149.917 196.357 150.208 202.928 C 150.581 211.327, 152.404 211.104, 152.793 202.612 L 153.087 196.206 156.759 195.517 C 166.691 193.654, 176.065 184.425, 169.985 182.495 C 168.597 182.055, 166.808 182.775, 164.235 184.813 C 162.181 186.439, 158.813 188.235, 156.750 188.804 L 153 189.839 153 169.419 C 153 156.050, 153.356 149, 154.032 149 C 156.292 149, 161.836 151.917, 165.216 154.885 C 168.872 158.095, 171.318 158.220, 172.456 155.254 C 173.794 151.766, 161.673 143, 155.511 143 C 153.164 143, 153 142.672, 153 138 C 153 134.222, 152.633 133, 151.500 133 C 150.367 133, 150 134.222, 150 138 M 144.384 150.913 C 132.849 156.151, 129.554 171.791, 137.679 182.737 C 140.240 186.187, 142.544 187.722, 147.139 189.040 L 150 189.860 150 169.430 C 150 158.194, 149.662 149.010, 149.250 149.022 C 148.838 149.034, 146.648 149.885, 144.384 150.913" stroke="none" fill="black" fill-rule="evenodd"/>
</svg>